<mxfile host="app.diagrams.net">  
  <diagram name="Fluxo de Pedidos">  
    <mxGraphModel dx="1000" dy="1000" grid="1" gridSize="10" guides="1" tooltips="1" connect="1" arrows="1" fold="1" page="1" pageScale="1" pageWidth="827" pageHeight="1169" math="0" shadow="0">  
      <root>  
        <mxCell id="0" />  
        <mxCell id="1" parent="0" />  
        <mxCell id="2" value="Início" style="ellipse;whiteSpace=wrap;html=1;fillColor=#d5e8d4;strokeColor=#82b366;" vertex="1" parent="1">  
          <mxGeometry x="100" y="50" width="120" height="60" as="geometry" />  
        </mxCell>  
        <mxCell id="3" value="Cliente acessa o Cardápio" style="rounded=1;whiteSpace=wrap;html=1;fillColor=#dae8fc;strokeColor=#6c8ebf;" vertex="1" parent="1">  
          <mxGeometry x="100" y="150" width="180" height="60" as="geometry" />  
        </mxCell>  
        <mxCell id="4" value="Cliente adiciona itens ao Carrinho" style="rounded=1;whiteSpace=wrap;html=1;fillColor=#dae8fc;strokeColor=#6c8ebf;" vertex="1" parent="1">  
          <mxGeometry x="100" y="250" width="220" height="60" as="geometry" />  
        </mxCell>  
        <mxCell id="5" value="Cliente finaliza o pedido" style="rounded=1;whiteSpace=wrap;html=1;fillColor=#dae8fc;strokeColor=#6c8ebf;" vertex="1" parent="1">  
          <mxGeometry x="100" y="350" width="200" height="60" as="geometry" />  
        </mxCell>  
        <mxCell id="6" value="Pedido é salvo no banco de dados" style="rounded=1;whiteSpace=wrap;html=1;fillColor=#f8cecc;strokeColor=#b85450;" vertex="1" parent="1">  
          <mxGeometry x="100" y="450" width="240" height="60" as="geometry" />  
        </mxCell>  
        <mxCell id="7" value="Status do Pedido: Aguardando Preparo" style="rounded=1;whiteSpace=wrap;html=1;fillColor=#fff2cc;strokeColor=#d6b656;" vertex="1" parent="1">  
          <mxGeometry x="100" y="550" width="260" height="60" as="geometry" />  
        </mxCell>  
        <mxCell id="8" value="Administrador/Pizzaiolo inicia o preparo" style="rounded=1;whiteSpace=wrap;html=1;fillColor=#dae8fc;strokeColor=#6c8ebf;" vertex="1" parent="1">  
          <mxGeometry x="100" y="650" width="280" height="60" as="geometry" />  
        </mxCell>  
        <mxCell id="9" value="Status do Pedido: Preparo Iniciado" style="rounded=1;whiteSpace=wrap;html=1;fillColor=#fff2cc;strokeColor=#d6b656;" vertex="1" parent="1">  
          <mxGeometry x="100" y="750" width="260" height="60" as="geometry" />  
        </mxCell>  
        <mxCell id="10" value="Administrador/Pizzaiolo finaliza o preparo" style="rounded=1;whiteSpace=wrap;html=1;fillColor=#dae8fc;strokeColor=#6c8ebf;" vertex="1" parent="1">  
          <mxGeometry x="100" y="850" width="280" height="60" as="geometry" />  
        </mxCell>  
        <mxCell id="11" value="Status do Pedido: Preparo Finalizado" style="rounded=1;whiteSpace=wrap;html=1;fillColor=#fff2cc;strokeColor=#d6b656;" vertex="1" parent="1">  
          <mxGeometry x="100" y="950" width="260" height="60" as="geometry" />  
        </mxCell>  
        <mxCell id="12" value="Entregador inicia a entrega" style="rounded=1;whiteSpace=wrap;html=1;fillColor=#dae8fc;strokeColor=#6c8ebf;" vertex="1" parent="1">  
          <mxGeometry x="100" y="1050" width="220" height="60" as="geometry" />  
        </mxCell>  
        <mxCell id="13" value="Status do Pedido: Saiu para Entrega" style="rounded=1;whiteSpace=wrap;html=1;fillColor=#fff2cc;strokeColor=#d6b656;" vertex="1" parent="1">  
          <mxGeometry x="100" y="1150" width="260" height="60" as="geometry" />  
        </mxCell>  
        <mxCell id="14" value="Entregador finaliza a entrega" style="rounded=1;whiteSpace=wrap;html=1;fillColor=#dae8fc;strokeColor=#6c8ebf;" vertex="1" parent="1">  
          <mxGeometry x="100" y="1250" width="220" height="60" as="geometry" />  
        </mxCell>  
        <mxCell id="15" value="Status do Pedido: Entregue" style="rounded=1;whiteSpace=wrap;html=1;fillColor=#d5e8d4;strokeColor=#82b366;" vertex="1" parent="1">  
          <mxGeometry x="100" y="1350" width="200" height="60" as="geometry" />  
        </mxCell>  
        <mxCell id="16" value="Fim" style="ellipse;whiteSpace=wrap;html=1;fillColor=#d5e8d4;strokeColor=#82b366;" vertex="1" parent="1">  
          <mxGeometry x="100" y="1450" width="120" height="60" as="geometry" />  
        </mxCell>  
        <mxCell id="17" edge="1" source="2" target="3" parent="1">  
          <mxGeometry relative="1" as="geometry" />  
        </mxCell>  
        <mxCell id="18" edge="1" source="3" target="4" parent="1">  
          <mxGeometry relative="1" as="geometry" />  
        </mxCell>  
        <mxCell id="19" edge="1" source="4" target="5" parent="1">  
          <mxGeometry relative="1" as="geometry" />  
        </mxCell>  
        <mxCell id="20" edge="1" source="5" target="6" parent="1">  
          <mxGeometry relative="1" as="geometry" />  
        </mxCell>  
        <mxCell id="21" edge="1" source="6" target="7" parent="1">  
          <mxGeometry relative="1" as="geometry" />  
        </mxCell>  
        <mxCell id="22" edge="1" source="7" target="8" parent="1">  
          <mxGeometry relative="1" as="geometry" />  
        </mxCell>  
        <mxCell id="23" edge="1" source="8" target="9" parent="1">  
          <mxGeometry relative="1" as="geometry" />  
        </mxCell>  
        <mxCell id="24" edge="1" source="9" target="10" parent="1">  
          <mxGeometry relative="1" as="geometry" />  
        </mxCell>  
        <mxCell id="25" edge="1" source="10" target="11" parent="1">  
          <mxGeometry relative="1" as="geometry" />  
        </mxCell>  
        <mxCell id="26" edge="1" source="11" target="12" parent="1">  
          <mxGeometry relative="1" as="geometry" />  
        </mxCell>  
        <mxCell id="27" edge="1" source="12" target="13" parent="1">  
          <mxGeometry relative="1" as="geometry" />  
        </mxCell>  
        <mxCell id="28" edge="1" source="13" target="14" parent="1">  
          <mxGeometry relative="1" as="geometry" />  
        </mxCell>  
        <mxCell id="29" edge="1" source="14" target="15" parent="1">  
          <mxGeometry relative="1" as="geometry" />  
        </mxCell>  
        <mxCell id="30" edge="1" source="15" target="16" parent="1">  
          <mxGeometry relative="1" as="geometry" />  
        </mxCell>  
      </root>  
    </mxGraphModel>  
  </diagram>  
</mxfile>
